<svg xmlns="http://www.w3.org/2000/svg" xmlns:xlink="http://www.w3.org/1999/xlink" version="1.1" id="Layer_1" x="0px" y="0px" viewBox="0 0 70 23" style="enable-background:new 0 0 70 23;" xml:space="preserve">
<style type="text/css">
	.st0{fill:#ffffff;}
	.st1{fill:url(#Path_1_00000122680874567927695950000008839070338827797179_);}
	.st2{fill:url(#Path_2_00000036933246572433737090000013972034070197855669_);}
</style>
<path class="st0" d="M28.1,11.4V7.7h2v3.8c0,1.2,0.9,2,2,2c1.2,0,2-0.9,2-2V7.7h2v3.8c0,2.3-2,3.9-4,3.9  C29.7,15.3,28.1,13.7,28.1,11.4z" fill="#ffffff"/>
<path class="st0" d="M37.5,11.4c0-2.4,2-4,4-4c2.4,0,4,1.6,4,4v3.8h-2v-3.8c0-1.2-0.9-2.1-2-2.1c-1.2,0-2,0.9-2,2.1v3.8h-1.9V11.4z" fill="#ffffff"/>
<path class="st0" d="M47.1,7.7h2v7.5h-2V7.7z" fill="#ffffff"/>
<path class="st0" d="M50.7,2h2v13.1h-2V2z" fill="#ffffff"/>
<path class="st0" d="M54.3,7.7h2v7.5h-2V7.7z" fill="#ffffff"/>
<path class="st0" d="M58.4,9.5h-1V7.7h1V4.8c0-1.7,1.2-2.8,2.8-2.8h0.3v1.9h-0.1c-0.6,0-0.9,0.4-0.9,0.9v2.8h1v1.9h-1v5.6h-2V9.5z" fill="#ffffff"/>
<path class="st0" d="M61.9,11.4c0-2.2,1.9-4,4-4c2.3,0,3.9,1.5,4,4v0.7h-6.1c0.2,0.9,1,1.5,2.1,1.5c0.6,0,1-0.2,1.5-0.7l1.2,1.3  c-0.7,0.7-1.7,1.2-2.7,1.2C63.6,15.3,61.9,13.7,61.9,11.4z M68.1,10.5c-0.3-0.9-1-1.4-2-1.4s-1.7,0.6-2,1.4H68.1z" fill="#ffffff"/>
<path class="st0" d="M46.9,4.9c0-0.7,0.6-1.2,1.3-1.2c0.6,0,1.2,0.6,1.2,1.2c0,0.7-0.6,1.3-1.2,1.3C47.5,6.2,46.9,5.6,46.9,4.9z" fill="#ffffff"/>
<path class="st0" d="M54.1,4.9c0-0.7,0.6-1.2,1.3-1.2c0.6,0,1.2,0.6,1.2,1.2c0,0.7-0.6,1.3-1.2,1.3C54.6,6.2,54.1,5.6,54.1,4.9z" fill="#ffffff"/>
<g>
	
		<linearGradient id="Path_1_00000061441182152321444190000012412205656494710686_" gradientUnits="userSpaceOnUse" x1="-912.7141" y1="543.9258" x2="-913.1743" y2="543.4025" gradientTransform="matrix(35.824 0 0 -35.362 32716.4316 19234.1992)" fill="#ffffff">
		<stop offset="0" style="stop-color:#C366FC" fill="#ffffff"/>
		<stop offset="1" style="stop-color:#8B3FF9" fill="#ffffff"/>
	</linearGradient>
	<path id="Path_1" style="fill:url(#Path_1_00000061441182152321444190000012412205656494710686_);" d="M3,0.3   c-0.3,0-0.6,0.1-0.9,0.2c-1.3,0.4-2.2,1.7-2.1,3c0,2.3,0,4.5,0,6.8c0,0.1,0,0.2,0.2,0.2c2.7,0.7,5.1,2.1,7.1,4   c1.9,1.9,3.2,4.2,3.9,6.7c0.1,0.2,0.1,0.4,0.1,0.6c-0.7-2.6-2.1-4.9-4-6.7c-2-1.8-4.5-3-7.2-3.3c0.5,4,2.3,7.1,5.8,9.1   c1.7,1,3.6,1.5,5.6,1.5h0.1c2.2,0,4.4-0.7,6.3-1.9c2.4-1.5,4.1-3.9,4.8-6.7c-4.4,0.9-8.9-0.1-12.4-2.8C6.5,8.6,4.3,4.6,4,0.2   c-0.2,0-0.4,0-0.7,0C3.2,0.2,3.1,0.2,3,0.3"/>
	
		<linearGradient id="Path_2_00000023240468503843093650000004206186876060888973_" gradientUnits="userSpaceOnUse" x1="-908.1354" y1="538.7034" x2="-908.5956" y2="538.1802" gradientTransform="matrix(24.889 0 0 -21.5242 22623.9551 11595.7256)" fill="#ffffff">
		<stop offset="0" style="stop-color:#C366FC" fill="#ffffff"/>
		<stop offset="1" style="stop-color:#8B3FF9" fill="#ffffff"/>
	</linearGradient>
	<path id="Path_2" style="fill:url(#Path_2_00000023240468503843093650000004206186876060888973_);" d="M16.3,8.8   c-1.4-0.1-2.5-1.2-2.5-2.6c0.1-1.4,1.2-2.4,2.6-2.4c1.3,0,2.5,1,2.5,2.4c0,0.1,0,0.1,0,0.2C18.9,7.7,17.8,8.8,16.3,8.8   C16.4,8.8,16.4,8.8,16.3,8.8L16.3,8.8 M7.3,0.2H7.1c-0.2,8.4,7.5,14.6,15.4,13.4c0.1-0.7,0.2-1.3,0.2-2c0-2.8,0-5.6,0-8.4   c0-0.2,0-0.4-0.1-0.5c-0.3-1.5-1.7-2.6-3.2-2.5H7.3"/>
</g>
</svg>